<?xml version="1.0" encoding="utf-8"?>
<!-- Generator: Adobe Illustrator 23.0.3, SVG Export Plug-In . SVG Version: 6.00 Build 0)  -->
<svg version="1.1" id="Layer_1" xmlns="http://www.w3.org/2000/svg" xmlns:xlink="http://www.w3.org/1999/xlink" x="0px" y="0px"
	 viewBox="0 0 595.28 841.89" style="enable-background:new 0 0 595.28 841.89;" xml:space="preserve">
<style type="text/css">
	.st0{fill:#383838;}
</style>
<path class="st0" d="M461.36,211.59c0-32.81-24.15-59.4-53.94-59.4c-0.1,0-0.2,0.01-0.3,0.01v-0.01H188.16v0.01
	c-0.1,0-0.2-0.01-0.3-0.01c-29.79,0-53.94,26.6-53.94,59.4c0,0.11,0.01,0.22,0.01,0.33h-0.01v148.55v33.72v96.28v64.55v117.71h0.01
	c0,0.11-0.01,0.22-0.01,0.33c0,32.81,24.15,59.4,53.94,59.4c0.1,0,0.2-0.01,0.3-0.01v0.01h218.96v-0.01c0.1,0,0.2,0.01,0.3,0.01
	c29.79,0,53.94-26.6,53.94-59.4c0-0.11-0.01-0.22-0.01-0.33h0.01V555.02v-64.55v-96.28v-33.72V211.91h-0.01
	C461.35,211.8,461.36,211.7,461.36,211.59z M297.64,708.71c-16.86,0-30.53-13.67-30.53-30.53c0-16.86,13.67-30.53,30.53-30.53
	c16.86,0,30.53,13.67,30.53,30.53C328.16,695.04,314.5,708.71,297.64,708.71z M422.23,203.72v16.66v3.78v5.4v355.66v5.4v7.24v3.63
	v9.57h0c0,0.01,0,0.02,0,0.04c0,3.68-2.71,6.66-6.05,6.66c-0.01,0-0.02,0-0.03,0v0h-12.28H191.41h-12.28v0c-0.01,0-0.02,0-0.03,0
	c-3.34,0-6.05-2.98-6.05-6.66c0-0.01,0-0.02,0-0.04h0v-9.57v-3.63v-7.24v-5.4V229.57v-5.4v-3.78v-16.66h0c0-0.01,0-0.02,0-0.04
	c0-3.68,2.71-6.66,6.05-6.66c0.01,0,0.02,0,0.03,0v0h12.28h212.46h12.28v0c0.01,0,0.02,0,0.03,0c3.34,0,6.05,2.98,6.05,6.66
	C422.23,203.7,422.23,203.71,422.23,203.72L422.23,203.72z"/>
</svg>
